<?xml version="1.0" encoding="UTF-8"?>
<svg version="1.1" viewBox="0 0 400 400" xmlns="http://www.w3.org/2000/svg">
<g transform="translate(0 -652.36)">
<g transform="matrix(.2951 0 0 .2951 -2143.8 -2336.3)" fill-rule="evenodd">
<rect x="7264.5" y="10128" width="1355.5" height="1355.5" rx="116.97" ry="116.97" fill="#0cf"/>
<g fill="#fff">
<path d="m7731.5 10475h114.2v673.43h-130.25v-500.71c-11.326 11.641-23.596 21.708-36.81 30.202-13.214 8.495-27.686 15.574-43.416 21.237v-120.81c23.281-13.214 43.023-28.472 59.226-45.777 16.202-17.303 28.551-36.494 37.046-57.574z" fill="#fff"/>
</g>
<g fill="#fff">
<path d="m8293 10680v263.8c-3e-4 81.799-12.506 138.35-37.518 169.66-25.012 31.304-69.136 46.956-132.37 46.956-63.866 0-108.23-15.574-133.08-46.72-24.854-31.147-37.282-87.777-37.282-169.89v-263.8c-1e-4 -82.113 12.427-138.59 37.282-169.42 24.854-30.831 69.215-46.247 133.08-46.248 63.552 0 107.75 15.417 132.61 46.248 24.854 30.833 37.281 87.306 37.282 169.42zm-136.38-50.495c-3e-4 -33.663-2.4385-55.922-7.3148-66.777-4.8767-10.853-13.607-16.28-26.192-16.281-12.585 0-21.394 5.9-26.427 17.697-5.034 11.799-7.5509 33.585-7.5507 65.361v364.32c-2e-4 34.922 2.438 57.496 7.3147 67.721 4.8763 10.225 13.764 15.337 26.663 15.337 12.27 0 20.922-5.742 25.956-17.225 5.0335-11.483 7.5504-33.428 7.5507-65.833z" fill="#fff"/>
</g>
</g>
</g>
</svg>
