<?xml version="1.0" encoding="UTF-8"?>
<svg version="1.1" viewBox="0 0 400 400" xmlns="http://www.w3.org/2000/svg">
<g transform="translate(0 -652.36)">
<g transform="matrix(.2951 0 0 .2951 -2641.3 -2336.3)" fill-rule="evenodd">
<rect x="8950.5" y="10128" width="1355.5" height="1355.5" rx="116.97" ry="116.97" fill="#fc0"/>
<g fill="#fff">
<path d="m9402.1 10474h114.2v673.43h-130.25v-500.71c-11.326 11.642-23.596 21.709-36.81 30.203-13.214 8.495-27.686 15.574-43.416 21.237v-120.81c23.281-13.213 43.023-28.472 59.226-45.776 16.202-17.303 28.551-36.494 37.046-57.574z" fill="#fff"/>
</g>
<g fill="#fff">
<path d="m9961.7 10646v9.91c-4e-4 31.147-4.5623 60.17-13.686 87.069-9.1241 26.9-24.54 55.765-46.248 86.597l-151.96 215.67h223.22v102.41h-361.02v-125.53l157.15-229.35c18.247-26.112 32.169-50.888 41.765-74.327 9.5954-23.438 14.393-44.281 14.394-62.529v-27.371c-2e-4 -33.663-2.4385-55.922-7.3147-66.777-4.8768-10.854-13.765-16.281-26.664-16.281-11.955 0-20.371 5.663-25.248 16.989-4.8767 11.327-7.3149 33.349-7.3148 66.069v27.371h-136.38v-9.91c-1e-4 -68.9 12.427-116.56 37.282-142.99 24.854-26.427 69.215-39.64 133.08-39.641 63.552 0 107.6 13.057 132.14 39.169 24.539 26.114 36.809 73.935 36.81 143.46z" fill="#fff"/>
</g>
</g>
</g>
</svg>
