<?xml version="1.0" encoding="UTF-8"?>
<svg version="1.1" viewBox="0 0 400 400" xmlns="http://www.w3.org/2000/svg">
<g transform="translate(0 -652.36)">
<g transform="matrix(.2951 0 0 .2951 -3138.8 -2336.3)" fill-rule="evenodd">
<rect x="10636" y="10128" width="1355.5" height="1355.5" rx="116.97" ry="116.97" fill="#f60"/>
<g fill="#fff">
<path d="m11074 10448h114.2v673.43h-130.25v-500.71c-11.326 11.641-23.596 21.709-36.81 30.203-13.214 8.495-27.686 15.574-43.416 21.236v-120.81c23.281-13.213 43.023-28.472 59.226-45.776 16.202-17.303 28.551-36.495 37.045-57.574z" fill="#fff"/>
</g>
<g fill="#fff">
<path d="m11465 10546-86.362 327.04h87.305l7.551-327.04zm-59.934-98.159h184.52v425.2h81.17v100.52h-81.17v147.71h-127.89v-147.71h-182.63v-115.15z" fill="#fff"/>
</g>
</g>
</g>
</svg>
