<?xml version="1.0" encoding="UTF-8"?>
<svg version="1.1" viewBox="0 0 400 400" xmlns="http://www.w3.org/2000/svg">
<g transform="translate(0 -652.36)">
<g transform="matrix(.2951 0 0 .2951 -3612.7 -2336.3)" fill-rule="evenodd">
<rect x="12242" y="10128" width="1355.5" height="1355.5" rx="116.97" ry="116.97" fill="#fe0000"/>
<g fill="#fff">
<path d="m12688 10448h114.2v673.43h-130.25v-500.71c-11.326 11.641-23.596 21.709-36.809 30.203-13.214 8.495-27.686 15.574-43.417 21.236v-120.81c23.281-13.213 43.023-28.472 59.226-45.776 16.202-17.303 28.551-36.495 37.045-57.574z" fill="#fff"/>
</g>
<g fill="#fff">
<path d="m13112 10873c0-34.607-2.281-57.102-6.843-67.485-4.562-10.382-12.821-15.573-24.776-15.573s-20.292 5.899-25.011 17.697c-4.72 11.798-7.079 33.585-7.079 65.361v93.44c0 34.607 2.281 57.102 6.843 67.484 4.561 10.382 12.977 15.573 25.247 15.573 11.641 0 19.821-5.663 24.54-16.989s7.079-33.349 7.079-66.068zm136.38-270.88v7.079h-136.38v-7.079c0-34.607-2.281-57.101-6.843-67.484-4.562-10.382-12.821-15.573-24.776-15.574-11.955 0-20.292 5.979-25.011 17.933-4.72 11.956-7.079 33.664-7.079 65.125v136.38c11.955-15.73 25.405-27.371 40.349-34.922s32.169-11.326 51.675-11.326c37.753 0 65.36 12.034 82.822 36.101 17.46 24.069 26.191 62.53 26.191 115.38v72.675c0 82.114-12.349 138.74-37.045 169.89-24.698 31.147-68.35 46.72-130.96 46.72-62.923 0-106.73-15.495-131.43-46.484s-37.046-87.698-37.046-170.13v-263.8c0-82.113 12.349-138.59 37.046-169.42s68.506-46.248 131.43-46.248c63.237 0 106.89 11.72 130.96 35.157 24.067 23.44 36.101 66.778 36.101 130.01z" fill="#fff"/>
</g>
</g>
</g>
</svg>
