<?xml version="1.0" encoding="UTF-8"?>
<svg width="354pt" height="354pt" version="1.1" viewBox="0 0 354 354" xmlns="http://www.w3.org/2000/svg" xmlns:cc="http://creativecommons.org/ns#" xmlns:dc="http://purl.org/dc/elements/1.1/" xmlns:rdf="http://www.w3.org/1999/02/22-rdf-syntax-ns#">
<metadata>
<rdf:RDF>
<cc:Work rdf:about="">
<dc:format>image/svg+xml</dc:format>
<dc:type rdf:resource="http://purl.org/dc/dcmitype/StillImage"/>
</cc:Work>
</rdf:RDF>
</metadata>
<path d="m0 0h354v354h-354v-354z" fill="none"/>
<path d="m24.04 1.33c4.22-0.99 8.59-0.65 12.88-0.64 93.01-0.05 186.02 0 279.02-0.02 5.2 0.14 10.54-0.57 15.59 1.04 9.65 2.74 17.85 10.59 20.57 20.31 1.86 5.48 1.17 11.35 1.23 17.03-0.02 94.63 0.03 189.27 0 283.91 0.66 13.77-9.92 26.68-23.17 29.74-5.31 1.21-10.78 0.4-16.16 0.64-94.97-0.05-189.93 0.03-284.9-0.04-15.58-0.29-29.17-14.7-28.47-30.27 0.1-97.98-0.01-195.96 0.03-293.94 0.46-13.09 10.57-25.06 23.38-27.76z" fill="#00af51"/>
<path transform="scale(.8)" d="m-5.1365 281.45c-19.439 49.44-123.79 143.16-174.42 157.61-50.629 14.457-205.46-30.381-237.64-71.345s-62.827-195.9-47.085-245.3c15.741-49.402 132.45-160.73 182.12-172.79 49.669-12.061 208.24 35.983 242.8 73.899 34.565 37.915 53.669 208.48 34.23 257.92z" fill-opacity="0" stroke="#e5a795" stroke-miterlimit="60" stroke-opacity=".11373" stroke-width=".30705"/>
<path transform="scale(.8)" d="m-80.13 421.69v-47.875h40.433 40.433l0.039281 17.531c0.039042 17.425 0.040939 17.54 0.31359 19.031 1.1858 6.4841 3.4728 11.62 7.4935 16.826 1.3294 1.7216 4.6349 5.0713 6.3471 6.4321 2.9212 2.3217 7.0642 4.6958 10.231 5.8627 2.9366 1.0822 6.1515 1.807 9.1222 2.0568 1.1186 0.0941 22.847 0.13458 72.156 0.13458h70.556v13.938 13.938h-128.56-128.56v-47.875z" fill="none" stroke="#e5a795" stroke-miterlimit="60" stroke-opacity=".11373" stroke-width=".038381"/>
<path transform="scale(.8)" d="m329.99 455.62v-13.944l38.719 0.016c41.809 0.0173 39.771 0.0463 43.219-0.61555 4.6915-0.90068 9.8654-3.2168 14.125-6.3232 7.503-5.4717 12.928-13.585 14.868-22.233 0.77966-3.4763 0.74042-2.4099 0.78602-21.363l0.0417-17.344h72.683 72.683v47.875 47.875h-128.56-128.56v-13.944z" fill="none" stroke="#e5a795" stroke-miterlimit="60" stroke-opacity=".11373" stroke-width=".038381"/>
<path d="m128.93 98.963c14.42-0.25 28.86-0.04 43.29-0.09 0.38 42.24 0.11 84.5 0.13 126.74 23.22 0.12 46.44-0.18 69.65 0.15 0.29 10.04 0.12 20.1 0.08 30.15-37.72 0.14-75.44 0.03-113.16 0.04-0.07-52.33-0.09-104.66 0.01-156.99z" fill="#fff"/>
</svg>
